<svg width="9" height="16" viewBox="0 0 9 16" fill="none" xmlns="http://www.w3.org/2000/svg">
<path d="M8.67202 7.25611C8.88206 7.45369 9 7.72122 9 8.00011C9 8.279 8.88206 8.54653 8.67202 8.74411L1.12162 15.8198C1.06065 15.8769 0.98827 15.9222 0.90861 15.9532C0.828952 15.9841 0.743573 16 0.657351 16C0.571129 16 0.48575 15.9841 0.406091 15.9532C0.326432 15.9222 0.254054 15.8769 0.193086 15.8198C0.0699549 15.7044 0.000779152 15.5479 0.000779152 15.3847C0.000779152 15.3039 0.0177603 15.2239 0.0507565 15.1492C0.0837526 15.0746 0.132117 15.0068 0.193086 14.9496L7.60887 8.00011L0.193086 1.05058C0.131894 0.993567 0.0833321 0.925776 0.0501957 0.85111C0.0170593 0.776443 0 0.696374 0 0.615508C0 0.534641 0.0170593 0.454572 0.0501957 0.379906C0.0833321 0.30524 0.131894 0.237449 0.193086 0.180431C0.254017 0.123235 0.326385 0.077857 0.406049 0.046896C0.485712 0.0159359 0.571109 0 0.657351 0C0.743594 0 0.82899 0.0159359 0.908654 0.046896C0.988318 0.077857 1.06069 0.123235 1.12162 0.180431L8.67202 7.25611Z" fill="#5B12B9"/>
</svg>
