<svg width="24" height="24" viewBox="0 0 24 24" fill="none" xmlns="http://www.w3.org/2000/svg">
<g id="svg-gobbler - 2023-11-15T114227.759 1">
<g id="Group">
<path id="Vector" d="M5.52321 14.7399C9.45884 13.6309 15.2965 11.3345 18.9381 9.46046C17.7808 5.48532 13.3587 3.20841 9.35117 4.78529C5.41929 6.3323 3.63148 10.9361 5.52321 14.7399ZM17.7155 3.16965C18.1309 3.16965 18.4688 2.83173 18.4688 2.41637C18.4688 2.00101 18.1309 1.66309 17.7155 1.66309C17.3002 1.66309 16.9623 2.00101 16.9623 2.41637C16.9623 2.83173 17.3002 3.16965 17.7155 3.16965ZM2.66037 21.1508C2.33332 21.1508 2.06726 21.4169 2.06726 21.7439C2.06726 22.071 2.33332 22.337 2.66037 22.337C2.98746 22.337 3.25353 22.071 3.25353 21.7439C3.25353 21.4169 2.98746 21.1508 2.66037 21.1508Z" fill="black"/>
<path id="Vector_2" d="M22.993 7.1911C22.8192 6.74883 21.494 6.48202 18.344 7.14544C18.477 7.33879 18.601 7.53815 18.7157 7.74291C19.6468 7.49058 20.3989 7.32764 20.9512 7.25888C21.6896 7.16705 22.0506 7.24505 22.1586 7.51974C22.266 7.79321 22.0582 8.0941 21.4635 8.52591C18.176 10.9127 5.51863 15.813 2.5394 15.813C2.1373 15.813 1.92135 15.7173 1.84185 15.5151C1.73343 15.2397 1.94629 14.9352 2.55365 14.497C3.00486 14.1715 3.66426 13.7798 4.51368 13.332C4.45812 13.1041 4.41307 12.8737 4.37868 12.6416C1.62107 14.3017 0.832724 15.4004 1.00729 15.8437C1.1879 16.3032 2.60183 16.5716 5.99282 15.8162C10.5077 14.8094 16.7196 12.3285 20.4548 9.86902C22.5583 8.48405 23.1452 7.57758 22.993 7.1911Z" fill="black"/>
<path id="Vector_3" d="M6.47266 16.1868C8.45477 18.5324 11.7694 19.3829 14.6499 18.2493C17.576 17.0977 19.4212 14.2179 19.2326 11.1648C15.7012 13.1827 10.6175 15.211 6.47266 16.1868Z" fill="black"/>
<path id="Vector_4" d="M20.1826 17.6003C20.4076 17.6003 20.59 17.418 20.59 17.193C20.59 16.968 20.4076 16.7856 20.1826 16.7856C19.9576 16.7856 19.7753 16.968 19.7753 17.193C19.7753 17.418 19.9576 17.6003 20.1826 17.6003Z" fill="black"/>
<path id="Vector_5" d="M2.96142 3.23095C3.18639 3.23095 3.36876 3.04857 3.36876 2.8236C3.36876 2.59863 3.18639 2.41626 2.96142 2.41626C2.73645 2.41626 2.55408 2.59863 2.55408 2.8236C2.55408 3.04857 2.73645 3.23095 2.96142 3.23095Z" fill="black"/>
</g>
</g>
</svg>
