<svg width="24" height="24" viewBox="0 0 24 24" fill="none" xmlns="http://www.w3.org/2000/svg">
<g id="svg-gobbler - 2023-11-15T114354.932 1">
<g id="Group">
<path id="Vector" d="M11.6004 1.78882C6.52665 1.78882 2.4654 6.06799 2.76985 11.1661C3.14392 17.4422 9.80452 21.3213 15.4419 18.6028C18.4014 17.1703 20.4474 14.1367 20.4474 10.6342C20.4474 5.75683 16.4786 1.78882 11.6004 1.78882ZM11.6004 18.0084C7.53512 18.0084 4.22781 14.7003 4.22781 10.6342C4.22781 6.5478 7.4791 5.43593 11.5651 5.43593C15.632 5.43593 18.973 6.53538 18.973 10.6342C18.973 14.7003 15.6657 18.0084 11.6004 18.0084Z" fill="black"/>
<path id="Vector_2" d="M5.64701 17.7981H3.77154C7.97928 22.3962 15.2232 22.3943 19.4292 17.7981H17.5538C14.1332 20.6464 9.10817 20.6803 5.64701 17.7981ZM11.565 5.90476C7.75985 5.90476 4.69653 6.84104 4.69653 10.6343C4.69653 14.4419 7.79356 17.5397 11.6004 17.5397C15.4072 17.5397 18.5043 14.4419 18.5043 10.6343C18.5043 7.40757 16.2993 5.90476 11.565 5.90476ZM17.0572 11.7524C17.0464 11.8052 17.0176 11.8527 16.9758 11.8869C16.9341 11.921 16.8818 11.9397 16.8278 11.9398C16.6789 11.9398 16.5683 11.8033 16.5979 11.6583C16.6665 11.3218 16.7009 10.9793 16.7007 10.6359C16.7007 9.1366 16.1135 8.26829 13.9032 7.88466C13.8426 7.8734 13.7888 7.83868 13.7536 7.78804C13.7184 7.7374 13.7046 7.67492 13.7151 7.61415C13.7257 7.55338 13.7598 7.49922 13.81 7.46341C13.8602 7.42759 13.9225 7.41302 13.9834 7.42285C15.1289 7.6217 15.9634 7.9868 16.4635 8.50805C16.9384 8.9994 17.1695 9.69563 17.1695 10.6359C17.1695 11.0126 17.1318 11.3882 17.0572 11.7524ZM2.80779 21.1508C2.48074 21.1508 2.21468 21.4169 2.21468 21.744C2.21468 22.071 2.48074 22.3371 2.80779 22.3371C3.13488 22.3371 3.40095 22.071 3.40095 21.744C3.40095 21.4169 3.13484 21.1508 2.80779 21.1508ZM2.39595 9.19487C1.9039 9.2558 1.52173 9.67712 1.52173 10.1862V11.0839C1.52173 11.5929 1.90381 12.0143 2.39576 12.0752C2.25279 11.1543 2.24365 10.1723 2.39595 9.19487ZM20.8323 9.19487C20.9804 10.1493 20.9804 11.1209 20.8323 12.0753C21.3251 12.0144 21.708 11.593 21.708 11.0839V10.1862C21.708 9.67712 21.3251 9.25576 20.8323 9.19487ZM21.725 1.66309C21.3097 1.66309 20.9718 2.00101 20.9718 2.41637C20.9718 2.83173 21.3097 3.16965 21.725 3.16965C22.1404 3.16965 22.4783 2.83173 22.4783 2.41637C22.4783 2.00101 22.1404 1.66309 21.725 1.66309Z" fill="black"/>
<path id="Vector_3" d="M21.1446 21.7439C21.3696 21.7439 21.552 21.5615 21.552 21.3365C21.552 21.1116 21.3696 20.9292 21.1446 20.9292C20.9197 20.9292 20.7373 21.1116 20.7373 21.3365C20.7373 21.5615 20.9197 21.7439 21.1446 21.7439Z" fill="black"/>
<path id="Vector_4" d="M3.10888 3.23095C3.33385 3.23095 3.51623 3.04857 3.51623 2.8236C3.51623 2.59863 3.33385 2.41626 3.10888 2.41626C2.88391 2.41626 2.70154 2.59863 2.70154 2.8236C2.70154 3.04857 2.88391 3.23095 3.10888 3.23095Z" fill="black"/>
</g>
</g>
</svg>
