<svg width="24" height="24" viewBox="0 0 24 24" fill="none" xmlns="http://www.w3.org/2000/svg">
<g id="svg-gobbler - 2023-11-15T114438.691 1">
<g id="Group">
<path id="Vector" d="M10.9025 21.5646C10.5754 21.5646 10.3093 21.8306 10.3093 22.1577C10.3093 22.4847 10.5754 22.7508 10.9025 22.7508C11.2295 22.7508 11.4956 22.4847 11.4956 22.1577C11.4956 21.8306 11.2295 21.5646 10.9025 21.5646ZM5.15289 13.2801C2.9868 13.2801 1.22449 15.0424 1.22449 17.2085C1.22449 19.3747 2.98675 21.1369 5.15289 21.1369C7.31903 21.1369 9.08125 19.3746 9.08125 17.2085C9.08125 15.0424 7.31903 13.2801 5.15289 13.2801ZM3.7488 17.3088C3.75352 17.2904 3.7558 17.2714 3.7556 17.2523C3.7556 17.1265 3.65294 17.0242 3.52675 17.0242C3.46626 17.0243 3.40827 17.0483 3.3655 17.0911C3.32272 17.1339 3.29865 17.1919 3.29857 17.2523C3.29857 17.3259 3.33344 17.395 3.39185 17.4373C3.4422 17.4738 3.47602 17.5287 3.48586 17.5901C3.49569 17.6515 3.48074 17.7142 3.4443 17.7646C3.40786 17.815 3.3529 17.8488 3.29152 17.8586C3.23015 17.8684 3.16737 17.8535 3.11702 17.817C2.93721 17.6869 2.82982 17.4758 2.82982 17.2524C2.82982 16.8681 3.14247 16.5555 3.52675 16.5555C3.91141 16.5555 4.22435 16.8681 4.22435 17.2524C4.22435 17.3143 4.21661 17.3743 4.20142 17.4308C4.19342 17.4605 4.17964 17.4883 4.16087 17.5127C4.1421 17.5371 4.11871 17.5576 4.09203 17.5729C4.06536 17.5883 4.03592 17.5982 4.0054 17.6022C3.97488 17.6062 3.94387 17.6041 3.91415 17.5961C3.88443 17.5881 3.85658 17.5743 3.83219 17.5555C3.80779 17.5368 3.78733 17.5134 3.77198 17.4867C3.74097 17.4328 3.73263 17.3689 3.7488 17.3088ZM5.47952 19.5615C5.38975 19.9081 5.07663 20.1502 4.71794 20.1502C4.65578 20.1502 4.59617 20.1255 4.55221 20.0816C4.50826 20.0376 4.48357 19.978 4.48357 19.9158C4.48357 19.8537 4.50826 19.7941 4.55221 19.7501C4.59617 19.7061 4.65578 19.6815 4.71794 19.6815C4.75965 19.6815 4.80097 19.6734 4.83953 19.6575C4.87809 19.6415 4.91314 19.6182 4.94267 19.5887C4.9722 19.5593 4.99563 19.5243 5.01163 19.4857C5.02762 19.4472 5.03587 19.4059 5.03589 19.3642C5.03589 19.1885 4.89325 19.0455 4.71794 19.0455C4.54305 19.0455 4.40069 19.1885 4.40069 19.3642C4.40069 19.4264 4.376 19.486 4.33204 19.5299C4.28809 19.5739 4.22848 19.5986 4.16632 19.5986C4.10416 19.5986 4.04454 19.5739 4.00059 19.5299C3.95663 19.486 3.93194 19.4264 3.93194 19.3642C3.93194 18.93 4.28453 18.5768 4.71794 18.5768C5.15172 18.5768 5.50464 18.93 5.50464 19.3642C5.50464 19.4305 5.49616 19.4969 5.47952 19.5615ZM4.92883 15.5864C4.83974 15.5058 4.7675 15.4084 4.71631 15.2998C4.66511 15.1911 4.63597 15.0734 4.63057 14.9534C4.61889 14.7093 4.70313 14.4752 4.86766 14.2942C5.20821 13.9212 5.78782 13.8941 6.16014 14.2332C6.21702 14.2851 6.26728 14.3438 6.30977 14.4081C6.32684 14.4337 6.3387 14.4624 6.34468 14.4926C6.35065 14.5228 6.35061 14.5539 6.34458 14.584C6.33854 14.6142 6.32662 14.6429 6.30949 14.6685C6.29236 14.6941 6.27036 14.716 6.24475 14.7331C6.21914 14.7502 6.19042 14.762 6.16022 14.768C6.13003 14.774 6.09895 14.7739 6.06877 14.7679C6.03859 14.7619 6.00989 14.7499 5.98432 14.7328C5.95874 14.7157 5.93679 14.6937 5.91972 14.6681C5.89852 14.6359 5.87344 14.6064 5.84505 14.5803C5.66299 14.4144 5.38024 14.428 5.21421 14.6098C5.1747 14.6531 5.14416 14.7037 5.12436 14.7589C5.10455 14.814 5.09586 14.8725 5.0988 14.931C5.10148 14.9897 5.11575 15.0471 5.1408 15.1002C5.16585 15.1532 5.20117 15.2008 5.24472 15.2401C5.35099 15.3374 5.49339 15.3759 5.63617 15.3467C5.66642 15.3402 5.69765 15.3398 5.72805 15.3455C5.75846 15.3512 5.78744 15.3628 5.81333 15.3797C5.83922 15.3966 5.8615 15.4185 5.8789 15.4441C5.89629 15.4697 5.90845 15.4984 5.91468 15.5287C5.92091 15.559 5.92108 15.5902 5.91518 15.6206C5.90928 15.651 5.89743 15.6799 5.88031 15.7056C5.86319 15.7314 5.84114 15.7535 5.81544 15.7707C5.78973 15.7879 5.76088 15.7998 5.73053 15.8058C5.66913 15.8185 5.60721 15.8246 5.54561 15.8246C5.31892 15.8246 5.09758 15.7409 4.92883 15.5864ZM7.80888 17.9596C7.74642 18.2 7.60594 18.4129 7.40947 18.5649C7.21299 18.7168 6.97164 18.7993 6.72325 18.7993C6.66109 18.7993 6.60148 18.7746 6.55752 18.7307C6.51357 18.6867 6.48888 18.6271 6.48888 18.5649C6.48888 18.5028 6.51357 18.4432 6.55752 18.3992C6.60148 18.3553 6.66109 18.3306 6.72325 18.3306C7.02049 18.3306 7.28022 18.1299 7.35499 17.8426C7.36868 17.7889 7.3758 17.7328 7.3758 17.6767C7.3758 17.3169 7.08307 17.0242 6.7233 17.0242C6.36353 17.0242 6.0708 17.3169 6.0708 17.6767C6.0708 17.7864 6.09672 17.8906 6.14786 17.9863C6.17715 18.0411 6.18345 18.1054 6.16538 18.1648C6.14732 18.2243 6.10637 18.2742 6.05153 18.3035C5.9967 18.3328 5.93248 18.3391 5.87301 18.321C5.81353 18.3029 5.76366 18.262 5.73438 18.2071C5.6475 18.0438 5.60206 17.8617 5.60205 17.6767C5.60205 17.0584 6.10502 16.5555 6.7233 16.5555C7.34158 16.5555 7.84455 17.0584 7.84455 17.6767C7.84455 17.7719 7.83255 17.8671 7.80888 17.9596ZM22.0222 1.24927C21.6069 1.24927 21.2689 1.58719 21.2689 2.00255C21.2689 2.41791 21.6069 2.75583 22.0222 2.75583C22.4376 2.75583 22.7755 2.41791 22.7755 2.00255C22.7755 1.58719 22.4376 1.24927 22.0222 1.24927Z" fill="black"/>
<path id="Vector_2" d="M11.1264 12.4096C11.1092 12.362 11.1078 12.3101 11.1226 12.2617C11.1373 12.2132 11.1673 12.1709 11.2081 12.1409L15.2405 9.18392L9.39732 10.29C9.35558 10.2979 9.31248 10.2943 9.27263 10.2796C9.23278 10.2649 9.19767 10.2396 9.17105 10.2065C9.14444 10.1734 9.12732 10.1337 9.12154 10.0916C9.11575 10.0495 9.12151 10.0067 9.13819 9.96762L12.2573 2.66553L7.50465 9.22409C7.47719 9.26192 7.43904 9.29068 7.39511 9.30668C7.35118 9.32267 7.30347 9.32517 7.25811 9.31385C7.21275 9.30252 7.17182 9.2779 7.14056 9.24314C7.10929 9.20838 7.08914 9.16506 7.08268 9.11876L6.54446 5.23756L2.78748 13.5032C3.47087 13.0654 4.28274 12.8113 5.15283 12.8113C7.5774 12.8113 9.54994 14.7838 9.54994 17.2085C9.55049 17.7642 9.44514 18.3149 9.23954 18.8312L22.417 11.8891L11.3611 12.5639C11.3105 12.567 11.2603 12.5536 11.218 12.5258C11.1757 12.498 11.1435 12.4572 11.1264 12.4096Z" fill="black"/>
<path id="Vector_3" d="M21.4419 21.3301C21.6669 21.3301 21.8492 21.1477 21.8492 20.9227C21.8492 20.6978 21.6669 20.5154 21.4419 20.5154C21.2169 20.5154 21.0345 20.6978 21.0345 20.9227C21.0345 21.1477 21.2169 21.3301 21.4419 21.3301Z" fill="black"/>
<path id="Vector_4" d="M3.406 2.81713C3.63097 2.81713 3.81334 2.63475 3.81334 2.40979C3.81334 2.18482 3.63097 2.00244 3.406 2.00244C3.18103 2.00244 2.99866 2.18482 2.99866 2.40979C2.99866 2.63475 3.18103 2.81713 3.406 2.81713Z" fill="black"/>
</g>
</g>
</svg>
