<svg width="76" height="57" viewBox="0 0 76 57" fill="none" xmlns="http://www.w3.org/2000/svg">
<path d="M73.3116 52.1737C72.1743 53.8851 70.177 55.0278 67.3542 55.5235C64.5283 56.0198 60.9673 55.8468 56.8868 55.0024C48.7313 53.3149 38.7076 48.9892 28.7824 42.3935C18.8571 35.7978 10.9865 28.2321 6.2718 21.367C3.91281 17.932 2.37397 14.716 1.73689 11.9185C1.10054 9.12412 1.38044 6.84009 2.51774 5.12867C3.65503 3.41725 5.65235 2.27451 8.47507 1.77881C11.301 1.28256 14.862 1.45558 18.9426 2.29992C27.098 3.98743 37.1217 8.31317 47.0469 14.9088C56.9722 21.5045 64.8428 29.0702 69.5575 35.9354C71.9165 39.3703 73.4553 42.5863 74.0924 45.3839C74.7288 48.1782 74.4489 50.4623 73.3116 52.1737Z" stroke="url(#paint0_linear_175_292)" stroke-width="2"/>
<defs>
<linearGradient id="paint0_linear_175_292" x1="47.6004" y1="14.076" x2="28.2289" y2="43.2264" gradientUnits="userSpaceOnUse">
<stop stop-color="#6F9A13"/>
<stop offset="1" stop-color="#B8FF20" stop-opacity="0"/>
</linearGradient>
</defs>
</svg>
