<svg width="48" height="11" viewBox="0 0 48 11" fill="none" xmlns="http://www.w3.org/2000/svg">
<path d="M47 5.5C47 5.56403 46.9761 5.70768 46.7665 5.9424C46.5515 6.18319 46.1881 6.46336 45.6376 6.76161C44.5378 7.35746 42.8804 7.92549 40.7472 8.41436C36.4968 9.38841 30.5752 10 24 10C17.4248 10 11.5032 9.38841 7.25281 8.41436C5.11957 7.92549 3.46217 7.35746 2.36242 6.76161C1.81195 6.46336 1.44852 6.18319 1.23351 5.9424C1.02392 5.70768 1 5.56403 1 5.5C1 5.43597 1.02392 5.29232 1.23351 5.0576C1.44852 4.81681 1.81195 4.53664 2.36242 4.23839C3.46217 3.64254 5.11957 3.07451 7.25281 2.58564C11.5032 1.61159 17.4248 1 24 1C30.5752 1 36.4968 1.61159 40.7472 2.58564C42.8804 3.07451 44.5378 3.64254 45.6376 4.23839C46.1881 4.53664 46.5515 4.81681 46.7665 5.0576C46.9761 5.29232 47 5.43597 47 5.5Z" stroke="url(#paint0_linear_175_542)" stroke-width="2"/>
<defs>
<linearGradient id="paint0_linear_175_542" x1="24" y1="0" x2="24" y2="11" gradientUnits="userSpaceOnUse">
<stop stop-color="#B8FF20"/>
<stop offset="1" stop-color="#B8FF20" stop-opacity="0"/>
</linearGradient>
</defs>
</svg>
