<svg width="77" height="17" viewBox="0 0 77 17" fill="none" xmlns="http://www.w3.org/2000/svg">
<path d="M76 8.5C76 8.75856 75.8858 9.10016 75.4844 9.53327C75.0782 9.97158 74.4306 10.4425 73.5117 10.9221C71.6763 11.8801 68.9549 12.7729 65.508 13.5339C58.6306 15.0523 49.0813 16 38.5 16C27.9187 16 18.3694 15.0523 11.492 13.5339C8.04513 12.7729 5.32366 11.8801 3.48826 10.9221C2.56943 10.4425 1.92185 9.97158 1.51561 9.53327C1.11417 9.10016 1 8.75856 1 8.5C1 8.24144 1.11417 7.89984 1.51561 7.46673C1.92185 7.02842 2.56943 6.55752 3.48826 6.07791C5.32366 5.11987 8.04513 4.22707 11.492 3.46608C18.3694 1.94768 27.9187 1 38.5 1C49.0813 1 58.6306 1.94768 65.508 3.46608C68.9549 4.22707 71.6763 5.11987 73.5117 6.07791C74.4306 6.55752 75.0782 7.02842 75.4844 7.46673C75.8858 7.89984 76 8.24144 76 8.5Z" stroke="url(#paint0_linear_175_541)" stroke-width="2"/>
<defs>
<linearGradient id="paint0_linear_175_541" x1="38.5" y1="0" x2="38.5" y2="17" gradientUnits="userSpaceOnUse">
<stop stop-color="#B8FF20"/>
<stop offset="1" stop-color="#B8FF20" stop-opacity="0"/>
</linearGradient>
</defs>
</svg>
